<svg xmlns="http://www.w3.org/2000/svg" width="18.207" height="18.206" viewBox="0 0 18.207 18.206">
    <g id="cancel" transform="translate(0 -.016)">
        <g id="Group_258" data-name="Group 258" transform="translate(0 .016)">
            <path id="Path_289" fill="#de0f0f" d="M11.109 9.119l6.807-6.808a1 1 0 0 0 0-1.408l-.6-.6a1 1 0 0 0-1.408 0L9.1 7.114 2.3.307a1 1 0 0 0-1.408 0l-.6.6a1 1 0 0 0 0 1.408L7.1 9.119.291 15.926a1 1 0 0 0 0 1.408l.6.6a1 1 0 0 0 1.408 0l6.801-6.81 6.807 6.807a.988.988 0 0 0 .7.291.988.988 0 0 0 .7-.291l.6-.6a1 1 0 0 0 0-1.408z" data-name="Path 289" transform="translate(0 -.016)"/>
        </g>
    </g>
</svg>
